{"title":"Rychly Prachy (PRAHA - 27.10.2011) - Ingrid","uid":6788777,"size":312716212,"categoryP":"porn","categoryS":"movies","magnet":"?xt=urn:btih:6c4771452f265c438c19b1b6159df81ed02e6b07&amp;dn=Rychly+Prachy+%28PRAHA+-+27.10.2011%29+-+Ingrid&amp;tr=udp%3A%2F%2Ftracker.openbittorrent.com%3A80&amp;tr=udp%3A%2F%2Fopen.demonii.com%3A1337&amp;tr=udp%3A%2F%2Ftracker.coppersurfer.tk%3A6969&amp;tr=udp%3A%2F%2Fexodus.desync.com%3A6969","seeders":1,"leechers":0,"uploader":null,"files":4,"time":1320191654,"description":"\n\n                Rychly Prachy (PRAHA - 27.10.2011) - Ingrid\n\n  Without advertising kinotip!\n  Without errors on video!\n  \nScreen:         &lt;a href=&quot; http://image.bayimg.com/aakdfaadm.jpg&quot; rel=&quot;nofollow&quot; target=&quot;_NEW&quot;&gt; http://image.bayimg.com/aakdfaadm.jpg&lt;/a&gt;\nOficial website: http://rychlyprachy.cz/\nDirect Link:    &lt;a href=&quot; http://rychlyprachy.cz/video58.cz.html&quot; rel=&quot;nofollow&quot; target=&quot;_NEW&quot;&gt; http://rychlyprachy.cz/video58.cz.html&lt;/a&gt;\n\n\n\nGeneral\nComplete name                    : Rychly Prachy (PRAHA - 27.10.2011) - Ingrid.wmv\nFormat                           : Windows Media\nFile size                        : 298 MiB\nDuration                         : 18mn 24s\nOverall bit rate mode            : Constant\nOverall bit rate                 : 2 264 Kbps\nMaximum Overall bit rate         : 2 274 Kbps\nEncoded date                     : UTC 2011-10-30 22:58:22.785\nSfOriginalFPS                    : 300000\n\nVideo\nID                               : 2\nFormat                           : VC-1\nFormat profile                   : MP@ML\nCodec ID                         : WMV3\nCodec ID/Info                    : Windows Media Video 9\nCodec ID/Hint                    : WMV3\nDescription of the codec         : Windows Media Video 9 - Professional\nDuration                         : 18mn 24s\nBit rate mode                    : Constant\nBit rate                         : 2 189 Kbps\nWidth                            : 640 pixels\nHeight                           : 480 pixels\nDisplay aspect ratio             : 4:3\nFrame rate                       : 30.000 fps\nBit depth                        : 8 bits\nScan type                        : Progressive\nCompression mode                 : Lossy\nBits/(Pixel*Frame)               : 0.237\nStream size                      : 288 MiB (97%)\nLanguage                         : Czech\n\nAudio\nID                               : 1\nFormat                           : WMA\nFormat version                   : Version 2\nCodec ID                         : 161\nCodec ID/Info                    : Windows Media Audio\nDescription of the codec         : Windows Media Audio 9.2 -  64 kbps, 44 kHz, stereo (A/V) 1-pass CBR\nDuration                         : 18mn 24s\nBit rate mode                    : Constant\nBit rate                         : 64.0 Kbps\nChannel(s)                       : 2 channels\nSampling rate                    : 44.1 KHz\nBit depth                        : 16 bits\nStream size                      : 8.43 MiB (3%)\nLanguage                         : Czech\n\n\n","torrent":{"xt":"urn:btih:6c4771452f265c438c19b1b6159df81ed02e6b07","amp;dn":"Rychly+Prachy+%28PRAHA+-+27.10.2011%29+-+Ingrid","amp;tr":["udp%3A%2F%2Ftracker.openbittorrent.com%3A80","udp%3A%2F%2Fopen.demonii.com%3A1337","udp%3A%2F%2Ftracker.coppersurfer.tk%3A6969","udp%3A%2F%2Fexodus.desync.com%3A6969"],"infoHash":"6c4771452f265c438c19b1b6159df81ed02e6b07","infoHashBuffer":{"type":"Buffer","data":[108,71,113,69,47,38,92,67,140,25,177,182,21,157,248,30,208,46,107,7]},"announce":[],"urlList":[]}}